<?xml version="1.0" encoding="utf-8" standalone="no"?>
<!DOCTYPE svg PUBLIC "-//W3C//DTD SVG 1.1//EN"
  "http://www.w3.org/Graphics/SVG/1.1/DTD/svg11.dtd">
<svg xmlns:xlink="http://www.w3.org/1999/xlink" width="576pt" height="576pt" viewBox="0 0 576 576" xmlns="http://www.w3.org/2000/svg" version="1.1">
 <metadata>
  <rdf:RDF xmlns:dc="http://purl.org/dc/elements/1.1/" xmlns:cc="http://creativecommons.org/ns#" xmlns:rdf="http://www.w3.org/1999/02/22-rdf-syntax-ns#">
   <cc:Work>
    <dc:type rdf:resource="http://purl.org/dc/dcmitype/StillImage"/>
    <dc:date>2023-12-12T01:01:08.883548</dc:date>
    <dc:format>image/svg+xml</dc:format>
    <dc:creator>
     <cc:Agent>
      <dc:title>Matplotlib v3.7.2, https://matplotlib.org/</dc:title>
     </cc:Agent>
    </dc:creator>
   </cc:Work>
  </rdf:RDF>
 </metadata>
 <defs>
  <style type="text/css">*{stroke-linejoin: round; stroke-linecap: butt}</style>
 </defs>
 <g id="figure_1">
  <g id="patch_1">
   <path d="M 0 576 
L 576 576 
L 576 0 
L 0 0 
z
" style="fill: #ffffff"/>
  </g>
  <g id="axes_1">
   <g id="patch_2">
    <path d="M 72 199.567059 
L 518.4 199.567059 
L 518.4 69.12 
L 72 69.12 
z
" style="fill: #ffffff"/>
   </g>
   <g id="matplotlib.axis_1"/>
   <g id="matplotlib.axis_2"/>
   <g id="line2d_1">
    <path d="M 92.290909 155.289821 
L 94.27051 145.944552 
L 96.250111 148.522558 
L 98.229712 149.81156 
L 100.209313 149.81156 
L 102.188914 150.133811 
L 104.168514 143.366547 
L 106.148115 148.522558 
L 108.127716 149.489309 
L 110.107317 148.522558 
L 112.086918 156.578824 
L 114.066519 168.179847 
L 116.04612 176.880614 
L 118.025721 162.701586 
L 120.005322 139.177289 
L 121.984922 126.287263 
L 123.964523 116.297494 
L 125.944124 110.174731 
L 129.903326 96.317954 
L 131.882927 88.261688 
L 133.862528 81.494425 
L 135.842129 76.338414 
L 137.821729 79.883171 
L 139.80133 90.839693 
L 141.780931 97.606957 
L 143.760532 97.606957 
L 145.740133 94.706701 
L 149.699335 106.629974 
L 151.678936 118.875499 
L 153.658537 139.82179 
L 155.638137 168.824348 
L 159.597339 152.067315 
L 161.57694 157.867826 
L 163.556541 158.190077 
L 165.536142 161.734834 
L 167.515743 155.934322 
L 169.495344 151.100563 
L 171.474945 143.044297 
L 173.454545 134.021279 
L 175.434146 133.376777 
L 177.413747 143.366547 
L 179.393348 163.023836 
L 181.372949 173.980358 
L 183.35255 169.7911 
L 185.332151 177.847366 
L 187.311752 163.990588 
L 189.291353 140.144041 
L 191.270953 124.031509 
L 193.250554 111.141483 
L 195.230155 95.673453 
L 197.209756 85.683683 
L 199.189357 80.849923 
L 201.168958 79.883171 
L 203.148559 88.261688 
L 205.12816 92.450946 
L 207.107761 99.54046 
L 209.087361 97.606957 
L 211.066962 93.095448 
L 213.046563 94.062199 
L 215.026164 99.21821 
L 217.005765 104.051969 
L 218.985366 113.074987 
L 220.964967 127.576266 
L 222.944568 131.765524 
L 224.924169 134.343529 
L 226.903769 132.732276 
L 228.88337 130.476522 
L 230.862971 133.054527 
L 232.842572 132.410026 
L 234.822173 124.67601 
L 236.801774 114.36399 
L 238.781375 108.563478 
L 240.760976 107.274476 
L 242.740576 103.407468 
L 246.699778 80.205422 
L 248.679379 79.23867 
L 250.65898 80.849923 
L 252.638581 89.872941 
L 254.618182 104.696471 
L 256.597783 109.20798 
L 258.577384 105.340972 
L 260.556984 110.819233 
L 262.536585 121.131253 
L 264.516186 150.133811 
L 266.495787 172.691355 
L 268.475388 179.136368 
L 270.454989 154.000818 
L 272.43459 135.954783 
L 274.414191 131.443274 
L 276.393792 141.755294 
L 278.373392 162.379335 
L 280.352993 167.213095 
L 282.332594 166.890844 
L 284.312195 178.169616 
L 288.271397 142.722046 
L 290.250998 129.50977 
L 292.230599 114.36399 
L 294.2102 96.962455 
L 296.1898 82.461176 
L 298.169401 78.916419 
L 300.149002 81.816675 
L 302.128603 90.517442 
L 304.108204 101.151714 
L 306.087805 106.629974 
L 308.067406 108.563478 
L 310.047007 115.008491 
L 312.026608 125.642762 
L 314.006208 144.65555 
L 315.985809 183.647877 
L 317.96541 176.880614 
L 319.945011 156.256573 
L 321.924612 152.389565 
L 323.904213 147.233555 
L 325.883814 146.589054 
L 329.843016 155.612072 
L 331.822616 153.678568 
L 333.802217 168.179847 
L 335.781818 168.502097 
L 337.761419 158.834578 
L 339.74102 158.512327 
L 341.720621 164.63509 
L 343.700222 162.057084 
L 347.659424 122.098005 
L 349.639024 107.918977 
L 351.618625 102.440716 
L 353.598226 101.796215 
L 355.577827 98.895959 
L 357.557428 93.095448 
L 359.537029 85.039182 
L 361.51663 79.883171 
L 363.496231 80.849923 
L 365.475831 89.872941 
L 367.455432 100.184962 
L 369.435033 105.340972 
L 371.414634 110.174731 
L 373.394235 116.619744 
L 375.373836 131.765524 
L 377.353437 153.034066 
L 379.333038 188.481637 
L 381.312639 174.302609 
L 383.292239 158.190077 
L 385.27184 148.522558 
L 387.251441 143.688798 
L 389.231042 150.133811 
L 391.210643 153.678568 
L 393.190244 154.000818 
L 395.169845 148.844808 
L 397.149446 164.63509 
L 399.129047 182.036624 
L 401.108647 174.624859 
L 403.088248 162.701586 
L 407.04745 135.310281 
L 411.006652 103.729719 
L 412.986253 95.028951 
L 414.965854 97.284706 
L 416.945455 101.796215 
L 418.925055 102.762967 
L 420.904656 95.028951 
L 422.884257 86.650435 
L 424.863858 80.849923 
L 426.843459 78.594169 
L 428.82306 81.494425 
L 430.802661 86.005934 
L 432.782262 95.673453 
L 434.761863 100.184962 
L 436.741463 96.962455 
L 438.721064 86.005934 
L 440.700665 76.016164 
L 442.680266 75.049412 
L 444.659867 82.461176 
L 446.639468 90.839693 
L 448.619069 96.317954 
L 450.59867 98.573708 
L 452.578271 96.317954 
L 454.557871 90.517442 
L 456.537472 87.294936 
L 458.517073 87.617187 
L 460.496674 85.039182 
L 462.476275 90.839693 
L 464.455876 95.351202 
L 466.435477 100.184962 
L 468.415078 105.340972 
L 470.394678 112.430486 
L 474.35388 142.399795 
L 476.333481 164.63509 
L 478.313082 193.637647 
L 480.292683 172.046854 
L 482.272284 158.190077 
L 484.251885 153.034066 
L 486.231486 151.422813 
L 488.211086 148.844808 
L 490.190687 153.034066 
L 492.170288 151.745064 
L 494.149889 160.768082 
L 496.12949 166.890844 
L 498.109091 161.090332 
L 498.109091 161.090332 
" clip-path="url(#p13100dd6ee)" style="fill: none; stroke: #1b9e77; stroke-width: 1.5; stroke-linecap: square"/>
   </g>
   <g id="patch_3">
    <path d="M 72 199.567059 
L 72 69.12 
" style="fill: none; stroke: #000000; stroke-width: 0.8; stroke-linejoin: miter; stroke-linecap: square"/>
   </g>
   <g id="patch_4">
    <path d="M 518.4 199.567059 
L 518.4 69.12 
" style="fill: none; stroke: #000000; stroke-width: 0.8; stroke-linejoin: miter; stroke-linecap: square"/>
   </g>
   <g id="patch_5">
    <path d="M 72 199.567059 
L 518.4 199.567059 
" style="fill: none; stroke: #000000; stroke-width: 0.8; stroke-linejoin: miter; stroke-linecap: square"/>
   </g>
   <g id="patch_6">
    <path d="M 72 69.12 
L 518.4 69.12 
" style="fill: none; stroke: #000000; stroke-width: 0.8; stroke-linejoin: miter; stroke-linecap: square"/>
   </g>
  </g>
  <g id="axes_2">
   <g id="patch_7">
    <path d="M 72 356.103529 
L 518.4 356.103529 
L 518.4 225.656471 
L 72 225.656471 
z
" style="fill: #ffffff"/>
   </g>
   <g id="matplotlib.axis_3"/>
   <g id="matplotlib.axis_4"/>
   <g id="line2d_2">
    <path d="M 92.290909 324.350464 
L 94.27051 350.174118 
L 96.250111 301.535391 
L 98.229712 249.386653 
L 100.209313 239.35805 
L 102.188914 248.885223 
L 104.168514 286.492486 
L 106.148115 328.863335 
L 108.127716 312.81757 
L 110.107317 277.968173 
L 112.086918 266.936709 
L 114.066519 270.948151 
L 116.04612 314.071145 
L 118.025721 350.174118 
L 121.984922 254.15024 
L 123.964523 243.369491 
L 125.944124 250.389514 
L 127.923725 287.746061 
L 129.903326 345.410531 
L 131.882927 301.284676 
L 133.862528 264.930989 
L 135.842129 257.910966 
L 137.821729 262.925268 
L 139.80133 325.353324 
L 141.780931 338.139794 
L 143.760532 287.996777 
L 145.740133 252.395234 
L 147.719734 243.118776 
L 149.699335 250.138799 
L 151.678936 304.794687 
L 153.658537 337.387648 
L 155.638137 286.743201 
L 157.617738 259.916687 
L 159.597339 254.400955 
L 161.57694 279.221749 
L 163.556541 344.909101 
L 165.536142 319.837592 
L 167.515743 268.190285 
L 169.495344 244.623067 
L 171.474945 244.372352 
L 173.454545 255.905246 
L 175.434146 332.373347 
L 177.413747 323.347604 
L 179.393348 271.951011 
L 181.372949 258.161681 
L 183.35255 257.660251 
L 185.332151 269.694575 
L 187.311752 340.646944 
L 189.291353 321.341883 
L 191.270953 268.190285 
L 193.250554 244.873782 
L 195.230155 246.378072 
L 197.209756 255.403815 
L 199.189357 331.621201 
L 201.168958 321.091168 
L 203.148559 275.461022 
L 205.12816 256.908106 
L 207.107761 255.654531 
L 209.087361 296.771805 
L 211.066962 343.655525 
L 215.026164 259.415257 
L 217.005765 241.865201 
L 218.985366 246.378072 
L 220.964967 288.247492 
L 222.944568 341.90052 
L 224.924169 294.013939 
L 226.903769 258.913827 
L 228.88337 250.138799 
L 230.862971 269.694575 
L 232.842572 334.128352 
L 234.822173 334.379067 
L 236.801774 279.723179 
L 238.781375 247.631648 
L 240.760976 240.862341 
L 242.740576 249.386653 
L 244.720177 320.589738 
L 246.699778 329.11405 
L 248.679379 280.224609 
L 250.65898 258.412396 
L 252.638581 255.654531 
L 254.618182 268.94243 
L 256.597783 341.649805 
L 258.577384 321.341883 
L 260.556984 273.204586 
L 262.536585 248.133078 
L 264.516186 245.625927 
L 266.495787 255.1531 
L 268.475388 334.629782 
L 270.454989 323.347604 
L 272.43459 272.953871 
L 274.414191 253.14738 
L 276.393792 250.890944 
L 278.373392 294.264654 
L 280.352993 346.914822 
L 282.332594 309.558274 
L 284.312195 261.922408 
L 286.291796 238.85662 
L 288.271397 242.115916 
L 290.250998 261.922408 
L 292.230599 340.396229 
L 294.2102 313.319 
L 296.1898 265.683134 
L 298.169401 247.130218 
L 300.149002 247.882363 
L 302.128603 307.051123 
L 304.108204 345.410531 
L 306.087805 298.02538 
L 308.067406 255.1531 
L 310.047007 240.862341 
L 312.026608 247.380933 
L 314.006208 307.301838 
L 315.985809 338.641224 
L 317.96541 284.73748 
L 319.945011 258.161681 
L 321.924612 251.392374 
L 323.904213 256.657391 
L 325.883814 324.350464 
L 327.863415 347.416252 
L 329.843016 290.253212 
L 331.822616 246.378072 
L 333.802217 243.118776 
L 335.781818 250.389514 
L 337.761419 325.353324 
L 339.74102 328.361905 
L 341.720621 277.968173 
L 343.700222 253.64881 
L 345.679823 250.890944 
L 347.659424 290.754642 
L 349.639024 349.171257 
L 351.618625 316.829011 
L 353.598226 263.928128 
L 355.577827 231.585882 
L 357.557428 242.868061 
L 359.537029 263.928128 
L 361.51663 340.396229 
L 363.496231 319.085447 
L 365.475831 259.415257 
L 367.455432 249.888084 
L 369.435033 255.654531 
L 371.414634 316.829011 
L 373.394235 349.421972 
L 377.353437 254.902385 
L 379.333038 234.594463 
L 381.312639 243.870922 
L 383.292239 285.489626 
L 385.27184 343.40481 
L 387.251441 299.780386 
L 389.231042 263.677413 
L 391.210643 254.902385 
L 393.190244 260.167402 
L 395.169845 321.592598 
L 397.149446 346.162676 
L 399.129047 294.766084 
L 401.108647 248.885223 
L 403.088248 237.853759 
L 405.067849 247.130218 
L 407.04745 290.503927 
L 409.027051 340.897659 
L 411.006652 290.503927 
L 412.986253 263.928128 
L 414.965854 255.905246 
L 416.945455 262.925268 
L 418.925055 335.381928 
L 420.904656 343.906241 
L 422.884257 285.238911 
L 424.863858 246.879503 
L 426.843459 240.611625 
L 428.82306 248.634508 
L 430.802661 319.837592 
L 432.782262 335.381928 
L 434.761863 284.486765 
L 436.741463 256.657391 
L 438.721064 251.141659 
L 440.700665 262.674553 
L 442.680266 336.886218 
L 444.659867 330.618341 
L 446.639468 280.726039 
L 448.619069 244.623067 
L 450.59867 236.850899 
L 452.578271 246.628787 
L 454.557871 304.293257 
L 456.537472 341.148375 
L 458.517073 295.016799 
L 460.496674 266.936709 
L 462.476275 258.161681 
L 464.455876 260.668832 
L 466.435477 314.572576 
L 468.415078 340.897659 
L 470.394678 298.52681 
L 472.374279 261.170262 
L 474.35388 239.107335 
L 476.333481 239.35805 
L 478.313082 264.680274 
L 480.292683 330.367626 
L 482.272284 324.350464 
L 484.251885 293.261793 
L 486.231486 270.196005 
L 488.211086 258.161681 
L 490.190687 256.155961 
L 492.170288 308.053983 
L 494.149889 341.649805 
L 496.12949 306.800408 
L 498.109091 277.216028 
L 498.109091 277.216028 
" clip-path="url(#p70e52a80fb)" style="fill: none; stroke: #d95f02; stroke-width: 1.5; stroke-linecap: square"/>
   </g>
   <g id="patch_8">
    <path d="M 72 356.103529 
L 72 225.656471 
" style="fill: none; stroke: #000000; stroke-width: 0.8; stroke-linejoin: miter; stroke-linecap: square"/>
   </g>
   <g id="patch_9">
    <path d="M 518.4 356.103529 
L 518.4 225.656471 
" style="fill: none; stroke: #000000; stroke-width: 0.8; stroke-linejoin: miter; stroke-linecap: square"/>
   </g>
   <g id="patch_10">
    <path d="M 72 356.103529 
L 518.4 356.103529 
" style="fill: none; stroke: #000000; stroke-width: 0.8; stroke-linejoin: miter; stroke-linecap: square"/>
   </g>
   <g id="patch_11">
    <path d="M 72 225.656471 
L 518.4 225.656471 
" style="fill: none; stroke: #000000; stroke-width: 0.8; stroke-linejoin: miter; stroke-linecap: square"/>
   </g>
  </g>
  <g id="axes_3">
   <g id="patch_12">
    <path d="M 72 512.64 
L 518.4 512.64 
L 518.4 382.192941 
L 72 382.192941 
z
" style="fill: #ffffff"/>
   </g>
   <g id="matplotlib.axis_5"/>
   <g id="matplotlib.axis_6"/>
   <g id="line2d_3">
    <path d="M 92.290909 425.414251 
L 94.27051 435.110144 
L 96.250111 461.960311 
L 98.229712 495.523019 
L 100.209313 506.710588 
L 102.188914 471.656204 
L 104.168514 423.176737 
L 106.148115 403.039112 
L 108.127716 388.122353 
L 110.107317 389.614029 
L 112.086918 399.309922 
L 114.066519 426.160089 
L 116.04612 442.568524 
L 118.025721 481.352098 
L 121.984922 444.806038 
L 123.964523 438.839334 
L 125.944124 462.706149 
L 127.923725 460.468635 
L 129.903326 449.281065 
L 131.882927 449.281065 
L 133.862528 443.314362 
L 135.842129 448.535228 
L 137.821729 445.551876 
L 139.80133 441.076848 
L 141.780931 439.585172 
L 143.760532 444.0602 
L 145.740133 440.33101 
L 147.719734 432.126792 
L 149.699335 421.685061 
L 151.678936 397.072408 
L 153.658537 390.359867 
L 155.638137 400.801598 
L 157.617738 408.259978 
L 159.597339 405.276626 
L 161.57694 405.276626 
L 163.556541 417.210033 
L 165.536142 426.905927 
L 167.515743 415.718357 
L 169.495344 409.005816 
L 171.474945 401.547436 
L 173.454545 417.210033 
L 175.434146 409.751654 
L 177.413747 422.430899 
L 179.393348 420.939223 
L 181.372949 420.193385 
L 183.35255 423.176737 
L 185.332151 414.226681 
L 187.311752 407.51414 
L 189.291353 411.24333 
L 191.270953 413.480844 
L 193.250554 402.293274 
L 195.230155 406.022464 
L 197.209756 425.414251 
L 199.189357 437.347658 
L 201.168958 467.181176 
L 203.148559 492.539667 
L 205.12816 476.87707 
L 207.107761 467.927014 
L 209.087361 459.722797 
L 211.066962 444.0602 
L 213.046563 434.364306 
L 215.026164 422.430899 
L 217.005765 422.430899 
L 218.985366 427.651765 
L 220.964967 452.264417 
L 222.944568 469.41869 
L 224.924169 453.756093 
L 226.903769 446.297714 
L 228.88337 448.535228 
L 230.862971 441.822686 
L 232.842572 424.668413 
L 234.822173 418.701709 
L 236.801774 453.010255 
L 238.781375 467.927014 
L 240.760976 494.031343 
L 242.740576 438.839334 
L 244.720177 441.822686 
L 246.699778 444.0602 
L 248.679379 495.523019 
L 250.65898 492.539667 
L 252.638581 457.485283 
L 254.618182 397.818246 
L 256.597783 397.818246 
L 258.577384 417.210033 
L 260.556984 432.87263 
L 262.536585 425.414251 
L 264.516186 409.751654 
L 266.495787 417.210033 
L 268.475388 430.635117 
L 270.454989 438.093496 
L 272.43459 455.247769 
L 274.414191 469.41869 
L 276.393792 438.839334 
L 278.373392 430.635117 
L 280.352993 438.839334 
L 282.332594 454.501931 
L 284.312195 464.943663 
L 286.291796 477.622908 
L 288.271397 467.181176 
L 290.250998 453.010255 
L 292.230599 457.485283 
L 296.1898 423.922575 
L 298.169401 427.651765 
L 300.149002 418.701709 
L 302.128603 440.33101 
L 304.108204 442.568524 
L 306.087805 446.297714 
L 308.067406 462.706149 
L 310.047007 437.347658 
L 312.026608 420.939223 
L 314.006208 409.005816 
L 315.985809 406.768302 
L 317.96541 429.889279 
L 319.945011 420.939223 
L 321.924612 417.210033 
L 323.904213 397.818246 
L 325.883814 391.851543 
L 327.863415 403.039112 
L 329.843016 414.972519 
L 331.822616 407.51414 
L 333.802217 434.364306 
L 335.781818 431.380954 
L 339.74102 476.87707 
L 341.720621 464.943663 
L 343.700222 461.214473 
L 345.679823 460.468635 
L 347.659424 472.402042 
L 349.639024 444.0602 
L 351.618625 440.33101 
L 353.598226 442.568524 
L 355.577827 453.010255 
L 357.557428 450.772741 
L 359.537029 447.043552 
L 361.51663 436.60182 
L 363.496231 437.347658 
L 365.475831 433.618468 
L 367.455432 424.668413 
L 369.435033 437.347658 
L 371.414634 444.806038 
L 373.394235 428.397603 
L 375.373836 433.618468 
L 379.333038 404.530788 
L 381.312639 414.226681 
L 383.292239 429.889279 
L 385.27184 423.922575 
L 389.231042 434.364306 
L 391.210643 427.651765 
L 393.190244 423.176737 
L 395.169845 433.618468 
L 397.149446 431.380954 
L 399.129047 423.922575 
L 401.108647 451.518579 
L 403.088248 436.60182 
L 405.067849 458.976959 
L 407.04745 444.806038 
L 409.027051 441.076848 
L 411.006652 440.33101 
L 412.986253 445.551876 
L 414.965854 442.568524 
L 416.945455 441.076848 
L 418.925055 447.78939 
L 420.904656 458.231121 
L 422.884257 464.943663 
L 424.863858 459.722797 
L 426.843459 459.722797 
L 428.82306 453.756093 
L 430.802661 442.568524 
L 432.782262 443.314362 
L 434.761863 452.264417 
L 436.741463 464.197825 
L 438.721064 467.181176 
L 440.700665 451.518579 
L 442.680266 429.889279 
L 444.659867 436.60182 
L 446.639468 425.414251 
L 448.619069 431.380954 
L 450.59867 453.010255 
L 452.578271 457.485283 
L 454.557871 475.385394 
L 456.537472 476.131232 
L 458.517073 501.489723 
L 460.496674 488.810477 
L 462.476275 458.231121 
L 464.455876 437.347658 
L 466.435477 422.430899 
L 468.415078 435.855982 
L 470.394678 433.618468 
L 472.374279 432.87263 
L 474.35388 422.430899 
L 476.333481 414.226681 
L 478.313082 411.24333 
L 480.292683 409.005816 
L 482.272284 410.497492 
L 484.251885 420.939223 
L 486.231486 442.568524 
L 488.211086 442.568524 
L 490.190687 444.806038 
L 492.170288 425.414251 
L 494.149889 420.193385 
L 496.12949 417.955871 
L 498.109091 414.226681 
L 498.109091 414.226681 
" clip-path="url(#p823c5e6a36)" style="fill: none; stroke: #7570b3; stroke-width: 1.5; stroke-linecap: square"/>
   </g>
   <g id="patch_13">
    <path d="M 72 512.64 
L 72 382.192941 
" style="fill: none; stroke: #000000; stroke-width: 0.8; stroke-linejoin: miter; stroke-linecap: square"/>
   </g>
   <g id="patch_14">
    <path d="M 518.4 512.64 
L 518.4 382.192941 
" style="fill: none; stroke: #000000; stroke-width: 0.8; stroke-linejoin: miter; stroke-linecap: square"/>
   </g>
   <g id="patch_15">
    <path d="M 72 512.64 
L 518.4 512.64 
" style="fill: none; stroke: #000000; stroke-width: 0.8; stroke-linejoin: miter; stroke-linecap: square"/>
   </g>
   <g id="patch_16">
    <path d="M 72 382.192941 
L 518.4 382.192941 
" style="fill: none; stroke: #000000; stroke-width: 0.8; stroke-linejoin: miter; stroke-linecap: square"/>
   </g>
  </g>
 </g>
 <defs>
  <clipPath id="p13100dd6ee">
   <rect x="72" y="69.12" width="446.4" height="130.447059"/>
  </clipPath>
  <clipPath id="p70e52a80fb">
   <rect x="72" y="225.656471" width="446.4" height="130.447059"/>
  </clipPath>
  <clipPath id="p823c5e6a36">
   <rect x="72" y="382.192941" width="446.4" height="130.447059"/>
  </clipPath>
 </defs>
</svg>
